# xmcd
#
# Track frame offsets: 
#        150
#        22485
#        53160
#        82380
#        102000
#        128790
#        152760
#        177210
#        203895
#
# Disc length: 3072 seconds
#
# Revision: 0
# Processed by: cddbd v1.5.1PL2 Copyright (c) Steve Scherf et al.
# Submitted via: ExactAudioCopy v0.95b3
#
DISCID=7b0bfe09
DTITLE=Mary Gauthier - Nassau Folk Festival
DYEAR=2003
DGENRE=Folk
TTITLE0=I Drink
TTITLE1=Camelot
TTITLE2=Chrismas in Paradise
TTITLE3=Good-Bye
TTITLE4=After You're Gone
TTITLE5=Sugar Cane
TTITLE6=Long Way To Fall
TTITLE7=Our Lady Of The Shooting Stars
TTITLE8=Drag Queens
EXTD=
EXTT0=
EXTT1=
EXTT2=
EXTT3=
EXTT4=
EXTT5=
EXTT6=
EXTT7=
EXTT8=
PLAYORDER=
